<?xml version="1.0" standalone="no"?>
<!DOCTYPE svg PUBLIC "-//W3C//DTD SVG 20010904//EN"
 "http://www.w3.org/TR/2001/REC-SVG-20010904/DTD/svg10.dtd">
<svg version="1.0" xmlns="http://www.w3.org/2000/svg"
 width="50.000000pt" height="50.000000pt" viewBox="0 0 50.000000 50.000000"
 preserveAspectRatio="xMidYMid meet">

<g transform="translate(0.000000,50.000000) scale(0.100000,-0.100000)"
fill="#000000" stroke="none">
<path d="M79 431 l-29 -29 0 -157 0 -157 29 -29 29 -29 142 0 142 0 29 29 29
29 0 157 0 157 -29 29 -29 29 -142 0 -142 0 -29 -29z m331 -11 c18 -18 20 -33
20 -140 0 -164 4 -160 -180 -160 -184 0 -180 -4 -180 160 0 164 -4 160 180
160 127 0 142 -2 160 -20z m-160 -320 c106 0 140 3 158 16 21 14 22 14 22 -5
0 -12 -9 -30 -20 -41 -18 -18 -33 -20 -160 -20 -127 0 -142 2 -160 20 -11 11
-20 29 -20 41 0 19 1 19 22 5 18 -13 52 -16 158 -16z"/>
<path d="M200 280 l0 -80 50 0 c28 0 50 5 50 10 0 6 -18 10 -40 10 -36 0 -40
3 -40 25 0 23 4 25 40 25 22 0 40 5 40 10 0 6 -18 10 -40 10 -36 0 -40 3 -40
25 0 23 4 25 40 25 22 0 40 5 40 10 0 6 -22 10 -50 10 l-50 0 0 -80z"/>
</g>
</svg>
